PathFileType	4	(X/Y/Z)	 s09c0403.trc
DataRate	CameraRate	NumFrames	NumMarkers	Units	OrigDataRate	OrigDataStartFrame	OrigNumFrames
200	200	4	50	mm	200	1751	2000
Frame#	Time	racr			lacr			c7			jug			rlel			rdr			llel			ldr			s2			lic			ric			lasi			rasi			rpsi			lpsi			rgt			lgt			rth1			rth2			rth3			rth4			rlfc			rmfc			rsh1			rsh2			rsh3			rsh4			rlmal			rmmal			rcal			rtoe			rmt5			lth1			lth2			lth4			lth3			llfc			lmfc			llmal			lmmal			lcal			lmt5			lsh1			lsh2			lsh3			lsh4			ltoe			SBIKE			LBIKE			RBIKE			
		X1	Y1	Z1	X2	Y2	Z2	X3	Y3	Z3	X4	Y4	Z4	X5	Y5	Z5	X6	Y6	Z6	X7	Y7	Z7	X8	Y8	Z8	X9	Y9	Z9	X10	Y10	Z10	X11	Y11	Z11	X12	Y12	Z12	X13	Y13	Z13	X14	Y14	Z14	X15	Y15	Z15	X16	Y16	Z16	X17	Y17	Z17	X18	Y18	Z18	X19	Y19	Z19	X20	Y20	Z20	X21	Y21	Z21	X22	Y22	Z22	X23	Y23	Z23	X24	Y24	Z24	X25	Y25	Z25	X26	Y26	Z26	X27	Y27	Z27	X28	Y28	Z28	X29	Y29	Z29	X30	Y30	Z30	X31	Y31	Z31	X32	Y32	Z32	X33	Y33	Z33	X34	Y34	Z34	X35	Y35	Z35	X36	Y36	Z36	X37	Y37	Z37	X38	Y38	Z38	X39	Y39	Z39	X40	Y40	Z40	X41	Y41	Z41	X42	Y42	Z42	X43	Y43	Z43	X44	Y44	Z44	X45	Y45	Z45	X46	Y46	Z46	X47	Y47	Z47	X48	Y48	Z48	X49	Y49	Z49	X50	Y50	Z50	
1751	8.7550	744.325420	1217.088141	-24.456041	755.322828	1230.057052	-389.560631	758.831954	1285.311769	-204.106433	740.006182	1151.096281	-209.063520	546.878694	1061.665432	55.578523	687.357239	906.265265	-49.695128	550.962917	1094.754007	-533.030525	677.447969	906.257158	-449.026021	261.860112	1167.780794	-275.547007	418.395102	1073.495674	-378.265884	388.151589	1162.184372	-106.111017	428.078825	1046.276786	-357.712788	422.866016	1099.099849	-112.934810	287.872734	1200.144935	-216.891738	305.984212	1188.106561	-325.466927	358.446240	1045.661770	-56.394788	325.530702	985.070257	-429.490069	474.865696	966.234516	-73.754769	556.274727	937.736187	-89.797062	609.454256	868.938608	-95.813558	570.806309	960.244943	-115.449639	662.824627	781.771123	-132.594245	636.028511	767.427991	-233.463588	572.976026	740.509366	-96.826643	508.521260	677.721663	-102.119373	425.224254	654.594891	-92.375855	521.246888	655.710918	-133.268558	333.215804	601.039991	-83.050550	335.832209	608.348041	-159.667717	247.205051	628.016330	-114.930771	435.421909	441.031806	-132.883281	367.934533	484.413444	-64.426279	331.180516	856.547716	-430.858297	360.138675	777.043923	-423.129390	395.346378	779.010335	-408.980652	343.259649	688.024235	-416.274372	340.979761	595.635182	-396.102195	345.116096	576.712878	-297.415705	184.786280	264.998457	-412.160374	209.159921	266.944016	-345.209430	113.425422	257.142300	-373.954283	250.977600	148.609049	-430.645350	291.890932	509.865486	-421.827325	279.723364	424.208301	-416.280714	224.952706	354.019085	-415.366748	305.616101	414.753985	-387.160562	343.128682	131.432447	-361.781997	-64.893733	851.739616	-239.456743	20.854408	84.745266	-442.117963	21.075729	84.122589	-43.826008	
1752	8.7600	744.303385	1216.210475	-22.955830	754.682983	1230.421554	-388.165399	758.190706	1284.937270	-202.952320	739.391901	1150.721661	-207.911531	546.415931	1061.102843	56.381811	687.086039	906.445589	-49.467625	551.428908	1094.925627	-532.710462	676.135196	904.422580	-447.319893	261.659794	1167.963141	-275.742516	420.119897	1069.711073	-375.941956	387.335282	1162.252367	-105.966631	428.381738	1046.643243	-357.337753	422.263338	1099.429614	-112.530862	287.307119	1200.281571	-216.538436	306.024490	1188.928067	-325.355319	358.290624	1045.057539	-56.451030	325.227105	985.704166	-429.862392	475.159850	966.673421	-73.682410	556.905955	939.149116	-89.309340	610.793272	870.921983	-95.275853	571.493374	961.808111	-114.697018	665.537832	785.083175	-132.003013	639.674370	769.426394	-232.587568	575.314282	742.124091	-95.943336	512.318191	677.844565	-101.263392	429.385346	653.047617	-91.855887	526.485961	656.619832	-131.467269	338.626429	597.474857	-82.875766	340.914042	605.146230	-159.441736	251.197098	621.931570	-114.783831	446.344598	441.815631	-132.942102	377.394859	482.519690	-64.395959	330.915630	856.957309	-431.550754	360.995845	777.444578	-427.577886	395.508003	779.420422	-410.628414	343.302475	688.366168	-416.853316	341.368934	595.433942	-397.167696	346.006708	576.677587	-298.423108	176.717953	269.033067	-411.733318	201.428207	270.482922	-344.685642	105.168001	262.236491	-373.356437	241.014352	151.744956	-430.435128	290.145820	510.983948	-422.438474	275.656927	425.671505	-416.535818	219.077550	357.283867	-415.360300	301.535844	415.612656	-387.645547	332.932884	132.975842	-361.792667	-64.920774	851.726865	-239.422058	20.871145	84.746726	-442.109312	21.087107	84.108617	-43.811128	
1753	8.7650	744.476506	1215.288875	-21.618152	753.967964	1230.668781	-387.013822	757.723300	1284.497534	-201.772877	738.638324	1150.263601	-207.327326	545.996761	1060.567215	57.051860	686.779167	906.729344	-49.895301	551.733905	1095.136838	-532.343255	666.522623	897.816329	-433.892689	261.469002	1168.541935	-275.143794	421.661898	1066.521059	-373.776443	386.549247	1162.478384	-105.749827	428.249516	1048.903067	-357.537239	421.795274	1099.876557	-112.231773	286.897439	1200.633208	-215.859837	305.833544	1189.614505	-324.638485	358.236414	1044.501604	-56.831560	324.903244	986.528000	-430.122122	475.381520	966.841001	-73.684914	557.208750	940.147345	-88.953143	611.605484	872.398896	-94.846181	571.826766	963.142360	-114.109161	667.455721	787.784108	-131.689738	641.597715	770.353211	-230.902595	576.944856	742.864945	-95.082087	515.280608	677.370095	-100.500293	432.944425	650.660014	-91.243889	529.777615	655.934839	-130.734450	343.617994	592.884307	-82.555009	346.050778	601.789782	-159.783402	255.105028	614.753046	-114.508688	456.934884	442.054838	-132.968611	386.435189	479.988613	-64.164084	331.310801	857.627117	-432.151463	360.616205	778.022150	-425.499020	396.444583	780.346222	-412.094148	344.496843	689.031260	-417.219248	342.828885	595.588170	-398.241332	348.131024	576.946590	-299.428344	169.303682	273.787427	-411.189891	194.354268	274.727684	-344.046783	97.278989	268.169664	-372.843885	231.372597	155.543569	-430.238419	289.259327	512.543483	-423.099767	272.358723	427.607478	-416.795565	213.858439	360.983597	-415.027110	298.228171	416.935027	-388.105888	322.950591	134.921003	-361.694991	-64.950650	851.749497	-239.359663	20.849603	84.767189	-442.095494	21.082460	84.130581	-43.811642	
1754	8.7700	744.642137	1214.076758	-20.733858	753.294358	1230.780817	-386.068726	757.447960	1284.036796	-200.742565	737.955238	1149.968120	-206.676604	545.756332	1059.920675	57.667898	686.543160	906.928714	-49.967736	551.874828	1095.279962	-531.957878	666.693699	897.826811	-434.056523	261.183075	1169.193618	-274.259930	422.992655	1064.017653	-371.817090	385.961170	1162.778171	-105.470125	428.780449	1050.014391	-357.576343	421.381481	1100.312229	-111.953081	286.564377	1201.276887	-214.810262	305.847949	1190.754500	-325.015196	358.192109	1044.020159	-56.599135	324.638642	987.639813	-430.311147	475.307162	966.913721	-73.473280	557.260651	940.719250	-88.553358	611.917681	873.158175	-94.598464	571.907427	963.839023	-113.496904	668.345276	789.617986	-131.268342	642.530524	770.945153	-229.924908	577.999627	742.870546	-94.302456	518.683229	675.244640	-99.923298	435.905054	647.761763	-90.476475	532.685430	654.933123	-129.832238	348.224279	587.410471	-82.190628	350.094416	596.861934	-159.515716	258.762562	606.568609	-114.121817	467.378966	441.901923	-132.658008	395.151147	476.609701	-64.030047	332.216048	858.501998	-432.352357	362.860153	777.896946	-428.789612	398.436198	781.874265	-413.219335	346.784264	690.059866	-417.490078	345.172609	596.035430	-398.940449	352.399746	577.622663	-300.695257	162.602377	279.360324	-410.636654	187.974182	279.713275	-343.377653	90.613436	275.308070	-372.149694	222.156463	159.986405	-429.997168	289.358106	514.472778	-423.754046	270.003325	430.202590	-417.015951	209.525506	365.209675	-414.757084	295.746800	418.678187	-388.572327	313.278145	137.072263	-361.436962	-64.959317	851.781562	-239.247761	20.835262	84.804949	-442.093447	21.105536	84.125964	-43.775220	
